<mxfile host="app.diagrams.net" modified="2021-02-24T12:37:46.187Z" agent="5.0 (Windows NT 10.0; Win64; x64) AppleWebKit/537.36 (KHTML, like Gecko) Chrome/88.0.4324.182 Safari/537.36" etag="6yxE_sfWIgj1REBmiVev" version="14.4.2" type="github">
  <diagram id="Ov8broiNLJRV9wTUrS0m" name="Page-1">
    <mxGraphModel dx="1422" dy="762" grid="1" gridSize="10" guides="1" tooltips="1" connect="1" arrows="1" fold="1" page="1" pageScale="1" pageWidth="827" pageHeight="1169" math="0" shadow="0">
      <root>
        <mxCell id="0" />
        <mxCell id="1" parent="0" />
        <mxCell id="35E4WwM62xus3diGINMz-8" style="edgeStyle=orthogonalEdgeStyle;rounded=0;orthogonalLoop=1;jettySize=auto;html=1;" edge="1" parent="1" source="35E4WwM62xus3diGINMz-3">
          <mxGeometry relative="1" as="geometry">
            <mxPoint x="200" y="160" as="targetPoint" />
          </mxGeometry>
        </mxCell>
        <mxCell id="35E4WwM62xus3diGINMz-3" value="" style="ellipse;whiteSpace=wrap;html=1;" vertex="1" parent="1">
          <mxGeometry x="190" y="390" width="20" height="20" as="geometry" />
        </mxCell>
        <mxCell id="35E4WwM62xus3diGINMz-7" style="edgeStyle=orthogonalEdgeStyle;rounded=0;orthogonalLoop=1;jettySize=auto;html=1;" edge="1" parent="1" source="35E4WwM62xus3diGINMz-5">
          <mxGeometry relative="1" as="geometry">
            <mxPoint x="320" y="180" as="targetPoint" />
          </mxGeometry>
        </mxCell>
        <mxCell id="35E4WwM62xus3diGINMz-9" style="edgeStyle=orthogonalEdgeStyle;rounded=0;orthogonalLoop=1;jettySize=auto;html=1;entryX=1;entryY=0.5;entryDx=0;entryDy=0;" edge="1" parent="1" source="35E4WwM62xus3diGINMz-5" target="35E4WwM62xus3diGINMz-3">
          <mxGeometry relative="1" as="geometry" />
        </mxCell>
        <mxCell id="35E4WwM62xus3diGINMz-11" value="" style="edgeStyle=orthogonalEdgeStyle;rounded=0;orthogonalLoop=1;jettySize=auto;html=1;" edge="1" parent="1" source="35E4WwM62xus3diGINMz-5" target="35E4WwM62xus3diGINMz-10">
          <mxGeometry relative="1" as="geometry" />
        </mxCell>
        <mxCell id="35E4WwM62xus3diGINMz-5" value="" style="ellipse;whiteSpace=wrap;html=1;" vertex="1" parent="1">
          <mxGeometry x="310" y="390" width="20" height="20" as="geometry" />
        </mxCell>
        <mxCell id="35E4WwM62xus3diGINMz-10" value="" style="ellipse;whiteSpace=wrap;html=1;" vertex="1" parent="1">
          <mxGeometry x="410" y="390" width="20" height="20" as="geometry" />
        </mxCell>
        <mxCell id="35E4WwM62xus3diGINMz-12" value="B" style="text;html=1;align=center;verticalAlign=middle;resizable=0;points=[];autosize=1;" vertex="1" parent="1">
          <mxGeometry x="310" y="430" width="20" height="20" as="geometry" />
        </mxCell>
        <mxCell id="35E4WwM62xus3diGINMz-13" value="A" style="text;html=1;align=center;verticalAlign=middle;resizable=0;points=[];autosize=1;" vertex="1" parent="1">
          <mxGeometry x="180" y="430" width="20" height="20" as="geometry" />
        </mxCell>
        <mxCell id="35E4WwM62xus3diGINMz-14" value="C" style="text;html=1;align=center;verticalAlign=middle;resizable=0;points=[];autosize=1;" vertex="1" parent="1">
          <mxGeometry x="410" y="430" width="20" height="20" as="geometry" />
        </mxCell>
        <mxCell id="35E4WwM62xus3diGINMz-15" value="B1" style="text;html=1;align=center;verticalAlign=middle;resizable=0;points=[];autosize=1;" vertex="1" parent="1">
          <mxGeometry x="250" y="410" width="30" height="20" as="geometry" />
        </mxCell>
        <mxCell id="35E4WwM62xus3diGINMz-16" value="B2" style="text;html=1;align=center;verticalAlign=middle;resizable=0;points=[];autosize=1;" vertex="1" parent="1">
          <mxGeometry x="330" y="330" width="30" height="20" as="geometry" />
        </mxCell>
        <mxCell id="35E4WwM62xus3diGINMz-18" value="B3" style="text;html=1;align=center;verticalAlign=middle;resizable=0;points=[];autosize=1;" vertex="1" parent="1">
          <mxGeometry x="350" y="410" width="30" height="20" as="geometry" />
        </mxCell>
      </root>
    </mxGraphModel>
  </diagram>
</mxfile>
